HIERARCHY
ROOT root
{
	OFFSET	0	13.1	24.9
	CHANNELS 6  Xposition Yposition Zposition Xrotation Yrotation Zrotation
	JOINT spine_1
	{
		OFFSET	0	9.99999	0
		CHANNELS 3  Xrotation Yrotation Zrotation
		JOINT spine_2
		{
			OFFSET	0	112	-10
			CHANNELS 3  Xrotation Yrotation Zrotation
			JOINT spine_3
			{
				OFFSET	0	206.5	19.3
				CHANNELS 3  Xrotation Yrotation Zrotation
				JOINT spine_4
				{
					OFFSET	0	110.4	14.6
					CHANNELS 3  Xrotation Yrotation Zrotation
					JOINT neck_1
					{
						OFFSET	0	71.8	-50.3
						CHANNELS 3  Xrotation Yrotation Zrotation
						JOINT neck_2
						{
							OFFSET	0	86.2	-25.8
							CHANNELS 3  Xrotation Yrotation Zrotation
							JOINT head_ee
							{
								OFFSET	0	179.8	-8.7
								CHANNELS 3  Xrotation Yrotation Zrotation
								End Site
								{
									OFFSET	1	0	0
								}
							}
						}
					}
					JOINT left_clavicle
					{
						OFFSET	-43.2	22.4	-70.8
						CHANNELS 3  Xrotation Yrotation Zrotation
						JOINT left_shoulder
						{
							OFFSET	-93.9	-5.79999	48.7
							CHANNELS 3  Xrotation Yrotation Zrotation
							JOINT left_elbow
							{
								OFFSET	-291.4	-30.8	15.2
								CHANNELS 3  Xrotation Yrotation Zrotation
								JOINT left_lowarm_twist
								{
									OFFSET	-110.7	-3.89999	13.6
									CHANNELS 3  Xrotation Yrotation Zrotation
									JOINT left_hand
									{
										OFFSET	-110.7	-3.89999	13.6
										CHANNELS 3  Xrotation Yrotation Zrotation
										JOINT left_ee
										{
											OFFSET	-80.8	-5.10001	12.1
											CHANNELS 3  Xrotation Yrotation Zrotation
											End Site
											{
												OFFSET	1	0	0
											}
										}
									}
								}
							}
						}
					}
					JOINT right_clavicle
					{
						OFFSET	43.2	22.4	-70.8
						CHANNELS 3  Xrotation Yrotation Zrotation
						JOINT right_shoulder
						{
							OFFSET	93.9	-5.79999	48.7
							CHANNELS 3  Xrotation Yrotation Zrotation
							JOINT right_elbow
							{
								OFFSET	291.4	-30.8	15.2
								CHANNELS 3  Xrotation Yrotation Zrotation
								JOINT right_lowarm_twist
								{
									OFFSET	110.7	-3.89999	13.6
									CHANNELS 3  Xrotation Yrotation Zrotation
									JOINT right_hand
									{
										OFFSET	110.7	-3.89999	13.6
										CHANNELS 3  Xrotation Yrotation Zrotation
										JOINT right_ee
										{
											OFFSET	80.8	-5.10001	12.1
											CHANNELS 3  Xrotation Yrotation Zrotation
											End Site
											{
												OFFSET	1	0	0
											}
										}
									}
								}
							}
						}
					}
				}
			}
		}
	}
	JOINT left_hip
	{
		OFFSET	-82.8	-127.5	0.300001
		CHANNELS 3  Xrotation Yrotation Zrotation
		JOINT left_knee
		{
			OFFSET	-28.2	-396.7	2.2
			CHANNELS 3  Xrotation Yrotation Zrotation
			JOINT left_ankle
			{
				OFFSET	-11.7	-411.3	35.4
				CHANNELS 3  Xrotation Yrotation Zrotation
				JOINT left_toes
				{
					OFFSET	0	-60	-88.6
					CHANNELS 3  Xrotation Yrotation Zrotation
					JOINT left_foot_ee
					{
						OFFSET	-22.5	-16.5	-42.2
						CHANNELS 3  Xrotation Yrotation Zrotation
						End Site
						{
							OFFSET	1	0	0
						}
					}
				}
			}
		}
	}
	JOINT right_hip
	{
		OFFSET	82.8	-127.5	0.300001
		CHANNELS 3  Xrotation Yrotation Zrotation
		JOINT right_knee
		{
			OFFSET	28.2	-396.7	2.2
			CHANNELS 3  Xrotation Yrotation Zrotation
			JOINT right_ankle
			{
				OFFSET	11.7	-411.3	35.4
				CHANNELS 3  Xrotation Yrotation Zrotation
				JOINT right_toes
				{
					OFFSET	0	-60	-88.6
					CHANNELS 3  Xrotation Yrotation Zrotation
					JOINT right_foot_ee
					{
						OFFSET	22.5	-16.5	-42.2
						CHANNELS 3  Xrotation Yrotation Zrotation
						End Site
						{
							OFFSET	1	0	0
						}
					}
				}
			}
		}
	}
}
MOTION
Frames: 6
Frame Time: 0.02
3066.44 675.24 -677.371 -17.8729 47.682 14.2645 3.80675 -0.0740406 -0.752739 3.80706 -0.0259932 -0.755925 3.80724 0.0837394 -0.751722 3.80645 -0.0360285 -0.755513 -2.77725 12.8669 9.60032 -2.4765 15.8557 11.7687 -0.0 0.0 -0.0 -10.1095 12.9647 -15.7821 -1.96626 -32.9039 88.5688 1.83636 -42.288 0.710266 5.01241 0.149442 -0.62261 1.29067 -27.6142 -3.3728 -0.0 0.0 -0.0 10.5632 11.5652 -21.0499 -16.1736 48.6413 -43.4816 1.46739 36.0112 -0.476965 -10.6711 0.495797 -1.26908 -3.88772 19.2686 36.1226 0.0 0.0 0.0 28.4574 -51.5213 -5.9175 2.21642 -0.097597 -0.326079 -10.2688 29.3173 1.63638 40.2641 -0.0 -0.0 -0.0 0.0 -0.0 8.36198 51.4283 -8.64287 -19.3097 -0.303213 -2.93372 41.1108 -13.2964 5.00674 8.25076 -0.0 -0.0 0.0 0.0 0.0 
3041.77 677.198 -690.813 -16.8715 48.4747 15.3546 3.85223 -0.136212 -1.08075 3.85287 -0.0671692 -1.08723 3.8538 0.0900889 -1.08557 3.85216 -0.0824766 -1.08617 -1.35746 13.1496 8.22058 -1.07351 17.0948 10.2635 -0.0 0.0 -0.0 -9.99387 12.1963 -15.8637 0.190402 -33.8092 90.887 1.86134 -42.6735 0.727137 3.67829 0.114999 -0.455673 1.25443 -27.3967 -3.50606 -0.0 0.0 -0.0 9.77675 10.0324 -19.3454 -18.5621 46.0056 -44.8353 1.59103 38.2406 -0.551608 -9.91165 0.452761 -1.18198 -3.50502 20.7843 33.6733 0.0 0.0 0.0 28.5986 -52.5587 -5.18881 -0.166632 0.00682535 0.0246604 -7.68479 29.617 1.22283 40.1456 -0.0 -0.0 -0.0 0.0 -0.0 8.39405 51.2533 -10.7578 -20.7175 -0.286419 -3.14907 41.1482 -13.8068 5.01679 9.78606 -0.0 -0.0 0.0 0.0 0.0 
3016.25 675.446 -699.738 -16.2004 49.1863 16.1384 3.86306 -0.199938 -1.39433 3.86414 -0.110817 -1.40422 3.86627 0.092235 -1.40557 3.86354 -0.130883 -1.4025 -0.384708 13.2167 7.30721 -0.10032 17.7094 9.22868 -0.0 0.0 -0.0 -9.77633 10.1431 -16.2184 1.23912 -34.5906 91.0727 1.87941 -42.9494 0.739419 2.79984 0.0902 -0.346202 1.2555 -27.3553 -3.48053 -0.0 0.0 -0.0 9.2271 9.02745 -18.168 -20.66 43.9889 -45.6125 1.68087 39.7793 -0.608162 -9.2115 0.414114 -1.10118 -3.18051 21.5135 31.4524 0.0 0.0 0.0 28.0939 -53.3197 -5.16157 -2.03555 0.0784442 0.302522 -5.82416 29.818 0.925393 40.0558 -0.0 -0.0 -0.0 0.0 -0.0 8.43917 51.1296 -12.2502 -21.6983 -0.271594 -3.29883 40.9611 -14.3905 5.00875 10.8597 -0.0 -0.0 0.0 0.0 0.0 
2996.44 678.124 -709.477 -16.9021 50.1646 17.0819 3.87025 -0.292629 -1.41844 3.87135 -0.201786 -1.43419 3.87581 0.00625088 -1.44829 3.87295 -0.222535 -1.43111 -0.132792 13.1374 7.20439 0.151046 17.5872 9.09178 -0.0 0.0 -0.0 -9.87137 8.60243 -16.9579 1.79754 -35.1711 90.3989 1.89168 -43.1352 0.747789 2.1121 0.0696145 -0.260767 1.27458 -27.4758 -3.41296 -0.0 0.0 -0.0 8.55806 8.40278 -16.7433 -22.8998 42.1102 -45.3249 1.7454 40.8438 -0.649912 -8.52118 0.376981 -1.02107 -2.88909 22.0138 29.4503 0.0 0.0 0.0 26.6577 -53.5184 -5.09097 -3.44647 0.12648 0.513723 -4.50566 30.0127 0.715283 40.1233 -0.0 -0.0 -0.0 0.0 -0.0 9.68415 50.2517 -14.0519 -22.2821 -0.261552 -3.38785 40.9772 -15.0554 5.02021 11.6435 -0.0 -0.0 0.0 0.0 0.0 
2966.12 690.51 -719.577 -16.4797 50.9959 17.9588 3.83898 -0.390285 -1.62346 3.8404 -0.286203 -1.64499 3.84787 -0.0462368 -1.66906 3.84411 -0.309217 -1.64082 1.41635 13.2443 8.11276 1.73084 16.612 9.98596 -0.0 0.0 -0.0 -9.38716 7.20447 -16.4954 2.78023 -36.1705 91.1891 1.76593 -41.1754 0.663382 0.600181 0.0207601 -0.0738408 1.16631 -27.0096 -3.89648 -0.0 0.0 -0.0 9.02981 8.75643 -17.7473 -26.5587 40.0161 -45.3152 1.44443 35.5827 -0.463538 -8.02278 0.350774 -0.962964 -2.38765 23.5029 26.3364 0.0 0.0 0.0 25.6613 -53.212 -3.7031 -6.00237 0.200188 0.899015 -2.07771 30.3003 0.329043 40.1264 -0.0 -0.0 -0.0 0.0 -0.0 11.4505 49.7115 -15.8105 -22.8188 -0.25152 -3.4696 41.2952 -16.6041 5.07442 12.0086 -0.0 -0.0 0.0 0.0 0.0 
2941.35 706.392 -725.405 -16.9381 51.4007 18.9399 3.83214 -0.475291 -1.87813 3.83403 -0.35484 -1.90455 3.84483 -0.0766969 -1.9358 3.83981 -0.381402 -1.89941 2.55184 13.3473 8.71467 2.88291 15.9661 10.6101 -0.0 0.0 -0.0 -8.94829 6.08361 -15.9982 3.81139 -36.8912 91.9498 1.68959 -39.9251 0.613749 -0.468936 -0.0167585 0.0575422 1.0947 -26.6904 -4.21361 -0.0 0.0 -0.0 9.37613 8.91609 -18.4911 -29.4291 38.3845 -45.3961 1.24411 31.6441 -0.352578 -7.67674 0.332877 -0.922487 -2.01198 24.4823 24.0262 0.0 0.0 0.0 25.5746 -52.9438 -2.3477 -7.63681 0.238279 1.14694 -0.333112 30.4891 0.0526409 40.1285 -0.0 -0.0 -0.0 0.0 -0.0 12.3258 49.336 -16.8309 -23.8279 -0.230587 -3.62304 41.5029 -17.7687 5.11524 12.2661 -0.0 -0.0 0.0 0.0 0.0 
